<?xml version="1.0" encoding="utf-8"?>
<!-- Uploaded to: SVG Repo, www.svgrepo.com, Generator: SVG Repo Mixer Tools -->
<svg width="800px" height="800px" viewBox="0 0 1024 1024" class="icon"  version="1.1" xmlns="http://www.w3.org/2000/svg"><path d="M512 185.6c-198.4 0-262.4 192-243.2 326.4 25.6 115.2 115.2 326.4 243.2 326.4s217.6-224 243.2-332.8c25.6-128-44.8-320-243.2-320z m-44.8 435.2C448 640 371.2 608 332.8 576c-32-32-25.6-76.8-6.4-96 19.2-19.2 57.6-25.6 96 0 32 32 57.6 121.6 44.8 140.8z m76.8 134.4h-64c-6.4 0-6.4-6.4-6.4-6.4 0-6.4 6.4-6.4 6.4-6.4h64c6.4 0 6.4 6.4 6.4 6.4s0 6.4-6.4 6.4zM684.8 576c-32 32-121.6 64-134.4 44.8-12.8-19.2 19.2-108.8 51.2-140.8 32-32 76.8-19.2 96 0 19.2 19.2 25.6 64-12.8 96z" fill="#17A09A" /></svg>